<mxfile host="app.diagrams.net" modified="2023-06-08T02:03:32.234Z" agent="Mozilla/5.0 (Windows NT 10.0; Win64; x64) AppleWebKit/537.36 (KHTML, like Gecko) Chrome/114.0.0.0 Safari/537.36" etag="DEKeVA9XNynWwNE4vkbY" version="21.3.7" type="device">
  <diagram name="페이지-1" id="by1OqAP0mmTpB-vZk7IY">
    <mxGraphModel dx="1434" dy="788" grid="1" gridSize="10" guides="1" tooltips="1" connect="1" arrows="1" fold="1" page="1" pageScale="1" pageWidth="4681" pageHeight="3300" math="0" shadow="0">
      <root>
        <mxCell id="0" />
        <mxCell id="1" parent="0" />
        <mxCell id="WNugXiBcIQ565zmS0L84-12" style="edgeStyle=orthogonalEdgeStyle;rounded=0;orthogonalLoop=1;jettySize=auto;html=1;entryX=0;entryY=0.5;entryDx=0;entryDy=0;" edge="1" parent="1" source="WNugXiBcIQ565zmS0L84-1" target="WNugXiBcIQ565zmS0L84-2">
          <mxGeometry relative="1" as="geometry" />
        </mxCell>
        <mxCell id="WNugXiBcIQ565zmS0L84-1" value="사용자" style="shape=umlActor;verticalLabelPosition=bottom;verticalAlign=top;html=1;outlineConnect=0;" vertex="1" parent="1">
          <mxGeometry x="200" y="290" width="160" height="200" as="geometry" />
        </mxCell>
        <mxCell id="WNugXiBcIQ565zmS0L84-20" style="edgeStyle=orthogonalEdgeStyle;rounded=0;orthogonalLoop=1;jettySize=auto;html=1;entryX=0;entryY=0.5;entryDx=0;entryDy=0;" edge="1" parent="1" source="WNugXiBcIQ565zmS0L84-2" target="WNugXiBcIQ565zmS0L84-13">
          <mxGeometry relative="1" as="geometry" />
        </mxCell>
        <mxCell id="WNugXiBcIQ565zmS0L84-2" value="시작화면" style="ellipse;whiteSpace=wrap;html=1;" vertex="1" parent="1">
          <mxGeometry x="461" y="270" width="180" height="70" as="geometry" />
        </mxCell>
        <mxCell id="WNugXiBcIQ565zmS0L84-5" value="최신영화" style="swimlane;fontStyle=0;childLayout=stackLayout;horizontal=1;startSize=30;horizontalStack=0;resizeParent=1;resizeParentMax=0;resizeLast=0;collapsible=1;marginBottom=0;whiteSpace=wrap;html=1;" vertex="1" parent="1">
          <mxGeometry x="486" y="391" width="130" height="180" as="geometry">
            <mxRectangle x="486" y="391" width="90" height="30" as="alternateBounds" />
          </mxGeometry>
        </mxCell>
        <mxCell id="WNugXiBcIQ565zmS0L84-6" value="영화명" style="text;strokeColor=none;fillColor=none;align=left;verticalAlign=middle;spacingLeft=4;spacingRight=4;overflow=hidden;points=[[0,0.5],[1,0.5]];portConstraint=eastwest;rotatable=0;whiteSpace=wrap;html=1;" vertex="1" parent="WNugXiBcIQ565zmS0L84-5">
          <mxGeometry y="30" width="130" height="30" as="geometry" />
        </mxCell>
        <mxCell id="WNugXiBcIQ565zmS0L84-7" value="감독" style="text;strokeColor=none;fillColor=none;align=left;verticalAlign=middle;spacingLeft=4;spacingRight=4;overflow=hidden;points=[[0,0.5],[1,0.5]];portConstraint=eastwest;rotatable=0;whiteSpace=wrap;html=1;" vertex="1" parent="WNugXiBcIQ565zmS0L84-5">
          <mxGeometry y="60" width="130" height="30" as="geometry" />
        </mxCell>
        <mxCell id="WNugXiBcIQ565zmS0L84-8" value="출연진" style="text;strokeColor=none;fillColor=none;align=left;verticalAlign=middle;spacingLeft=4;spacingRight=4;overflow=hidden;points=[[0,0.5],[1,0.5]];portConstraint=eastwest;rotatable=0;whiteSpace=wrap;html=1;" vertex="1" parent="WNugXiBcIQ565zmS0L84-5">
          <mxGeometry y="90" width="130" height="30" as="geometry" />
        </mxCell>
        <mxCell id="WNugXiBcIQ565zmS0L84-11" value="개봉일자" style="text;strokeColor=none;fillColor=none;align=left;verticalAlign=middle;spacingLeft=4;spacingRight=4;overflow=hidden;points=[[0,0.5],[1,0.5]];portConstraint=eastwest;rotatable=0;whiteSpace=wrap;html=1;" vertex="1" parent="WNugXiBcIQ565zmS0L84-5">
          <mxGeometry y="120" width="130" height="30" as="geometry" />
        </mxCell>
        <mxCell id="WNugXiBcIQ565zmS0L84-10" value="영화설명" style="text;strokeColor=none;fillColor=none;align=left;verticalAlign=middle;spacingLeft=4;spacingRight=4;overflow=hidden;points=[[0,0.5],[1,0.5]];portConstraint=eastwest;rotatable=0;whiteSpace=wrap;html=1;" vertex="1" parent="WNugXiBcIQ565zmS0L84-5">
          <mxGeometry y="150" width="130" height="30" as="geometry" />
        </mxCell>
        <mxCell id="WNugXiBcIQ565zmS0L84-26" style="edgeStyle=orthogonalEdgeStyle;rounded=0;orthogonalLoop=1;jettySize=auto;html=1;entryX=0;entryY=0.5;entryDx=0;entryDy=0;" edge="1" parent="1" source="WNugXiBcIQ565zmS0L84-13" target="WNugXiBcIQ565zmS0L84-21">
          <mxGeometry relative="1" as="geometry" />
        </mxCell>
        <mxCell id="WNugXiBcIQ565zmS0L84-13" value="영화검색" style="ellipse;whiteSpace=wrap;html=1;" vertex="1" parent="1">
          <mxGeometry x="725" y="265" width="170" height="80" as="geometry" />
        </mxCell>
        <mxCell id="WNugXiBcIQ565zmS0L84-14" value="영화검색" style="swimlane;fontStyle=0;childLayout=stackLayout;horizontal=1;startSize=30;horizontalStack=0;resizeParent=1;resizeParentMax=0;resizeLast=0;collapsible=1;marginBottom=0;whiteSpace=wrap;html=1;" vertex="1" parent="1">
          <mxGeometry x="730" y="390" width="160" height="180" as="geometry" />
        </mxCell>
        <mxCell id="WNugXiBcIQ565zmS0L84-15" value="제목으로 검색하기" style="text;strokeColor=none;fillColor=none;align=left;verticalAlign=middle;spacingLeft=4;spacingRight=4;overflow=hidden;points=[[0,0.5],[1,0.5]];portConstraint=eastwest;rotatable=0;whiteSpace=wrap;html=1;" vertex="1" parent="WNugXiBcIQ565zmS0L84-14">
          <mxGeometry y="30" width="160" height="30" as="geometry" />
        </mxCell>
        <mxCell id="WNugXiBcIQ565zmS0L84-16" value="장르로 검색하기" style="text;strokeColor=none;fillColor=none;align=left;verticalAlign=middle;spacingLeft=4;spacingRight=4;overflow=hidden;points=[[0,0.5],[1,0.5]];portConstraint=eastwest;rotatable=0;whiteSpace=wrap;html=1;" vertex="1" parent="WNugXiBcIQ565zmS0L84-14">
          <mxGeometry y="60" width="160" height="30" as="geometry" />
        </mxCell>
        <mxCell id="WNugXiBcIQ565zmS0L84-17" value="감독으로 검색하기" style="text;strokeColor=none;fillColor=none;align=left;verticalAlign=middle;spacingLeft=4;spacingRight=4;overflow=hidden;points=[[0,0.5],[1,0.5]];portConstraint=eastwest;rotatable=0;whiteSpace=wrap;html=1;" vertex="1" parent="WNugXiBcIQ565zmS0L84-14">
          <mxGeometry y="90" width="160" height="30" as="geometry" />
        </mxCell>
        <mxCell id="WNugXiBcIQ565zmS0L84-19" value="주연으로 검색하기" style="text;strokeColor=none;fillColor=none;align=left;verticalAlign=middle;spacingLeft=4;spacingRight=4;overflow=hidden;points=[[0,0.5],[1,0.5]];portConstraint=eastwest;rotatable=0;whiteSpace=wrap;html=1;" vertex="1" parent="WNugXiBcIQ565zmS0L84-14">
          <mxGeometry y="120" width="160" height="30" as="geometry" />
        </mxCell>
        <mxCell id="WNugXiBcIQ565zmS0L84-18" value="내용(키워드)로 검색하기" style="text;strokeColor=none;fillColor=none;align=left;verticalAlign=middle;spacingLeft=4;spacingRight=4;overflow=hidden;points=[[0,0.5],[1,0.5]];portConstraint=eastwest;rotatable=0;whiteSpace=wrap;html=1;" vertex="1" parent="WNugXiBcIQ565zmS0L84-14">
          <mxGeometry y="150" width="160" height="30" as="geometry" />
        </mxCell>
        <mxCell id="WNugXiBcIQ565zmS0L84-27" style="edgeStyle=orthogonalEdgeStyle;rounded=0;orthogonalLoop=1;jettySize=auto;html=1;entryX=0;entryY=0.5;entryDx=0;entryDy=0;" edge="1" parent="1" source="WNugXiBcIQ565zmS0L84-21" target="WNugXiBcIQ565zmS0L84-22">
          <mxGeometry relative="1" as="geometry" />
        </mxCell>
        <mxCell id="WNugXiBcIQ565zmS0L84-28" style="edgeStyle=orthogonalEdgeStyle;rounded=0;orthogonalLoop=1;jettySize=auto;html=1;entryX=0;entryY=0.5;entryDx=0;entryDy=0;" edge="1" parent="1" source="WNugXiBcIQ565zmS0L84-21" target="WNugXiBcIQ565zmS0L84-23">
          <mxGeometry relative="1" as="geometry" />
        </mxCell>
        <mxCell id="WNugXiBcIQ565zmS0L84-29" style="edgeStyle=orthogonalEdgeStyle;rounded=0;orthogonalLoop=1;jettySize=auto;html=1;entryX=0;entryY=0.5;entryDx=0;entryDy=0;" edge="1" parent="1" source="WNugXiBcIQ565zmS0L84-21" target="WNugXiBcIQ565zmS0L84-24">
          <mxGeometry relative="1" as="geometry" />
        </mxCell>
        <mxCell id="WNugXiBcIQ565zmS0L84-30" style="edgeStyle=orthogonalEdgeStyle;rounded=0;orthogonalLoop=1;jettySize=auto;html=1;entryX=0;entryY=0.5;entryDx=0;entryDy=0;" edge="1" parent="1" source="WNugXiBcIQ565zmS0L84-21" target="WNugXiBcIQ565zmS0L84-25">
          <mxGeometry relative="1" as="geometry" />
        </mxCell>
        <mxCell id="WNugXiBcIQ565zmS0L84-21" value="자세히 보기" style="ellipse;whiteSpace=wrap;html=1;" vertex="1" parent="1">
          <mxGeometry x="967" y="265" width="160" height="80" as="geometry" />
        </mxCell>
        <mxCell id="WNugXiBcIQ565zmS0L84-40" style="edgeStyle=orthogonalEdgeStyle;rounded=0;orthogonalLoop=1;jettySize=auto;html=1;" edge="1" parent="1" source="WNugXiBcIQ565zmS0L84-22" target="WNugXiBcIQ565zmS0L84-39">
          <mxGeometry relative="1" as="geometry" />
        </mxCell>
        <mxCell id="WNugXiBcIQ565zmS0L84-22" value="영화평남기기" style="ellipse;whiteSpace=wrap;html=1;" vertex="1" parent="1">
          <mxGeometry x="1190" y="180" width="140" height="60" as="geometry" />
        </mxCell>
        <mxCell id="WNugXiBcIQ565zmS0L84-33" style="edgeStyle=orthogonalEdgeStyle;rounded=0;orthogonalLoop=1;jettySize=auto;html=1;entryX=0;entryY=0.5;entryDx=0;entryDy=0;" edge="1" parent="1" source="WNugXiBcIQ565zmS0L84-23" target="WNugXiBcIQ565zmS0L84-31">
          <mxGeometry relative="1" as="geometry" />
        </mxCell>
        <mxCell id="WNugXiBcIQ565zmS0L84-23" value="영화예매하기" style="ellipse;whiteSpace=wrap;html=1;" vertex="1" parent="1">
          <mxGeometry x="1190" y="260" width="140" height="60" as="geometry" />
        </mxCell>
        <mxCell id="WNugXiBcIQ565zmS0L84-34" style="edgeStyle=orthogonalEdgeStyle;rounded=0;orthogonalLoop=1;jettySize=auto;html=1;entryX=0;entryY=0.5;entryDx=0;entryDy=0;" edge="1" parent="1" source="WNugXiBcIQ565zmS0L84-24" target="WNugXiBcIQ565zmS0L84-32">
          <mxGeometry relative="1" as="geometry" />
        </mxCell>
        <mxCell id="WNugXiBcIQ565zmS0L84-24" value="OTT 링크 바로가기" style="ellipse;whiteSpace=wrap;html=1;" vertex="1" parent="1">
          <mxGeometry x="1190" y="345" width="140" height="60" as="geometry" />
        </mxCell>
        <mxCell id="WNugXiBcIQ565zmS0L84-25" value="공유하기" style="ellipse;whiteSpace=wrap;html=1;" vertex="1" parent="1">
          <mxGeometry x="1190" y="430" width="140" height="60" as="geometry" />
        </mxCell>
        <mxCell id="WNugXiBcIQ565zmS0L84-31" value="제휴영화관 링크" style="ellipse;whiteSpace=wrap;html=1;" vertex="1" parent="1">
          <mxGeometry x="1410" y="260" width="140" height="60" as="geometry" />
        </mxCell>
        <mxCell id="WNugXiBcIQ565zmS0L84-32" value="OTT 연결" style="ellipse;whiteSpace=wrap;html=1;" vertex="1" parent="1">
          <mxGeometry x="1410" y="345" width="140" height="60" as="geometry" />
        </mxCell>
        <mxCell id="WNugXiBcIQ565zmS0L84-35" value="공유하기" style="swimlane;fontStyle=0;childLayout=stackLayout;horizontal=1;startSize=30;horizontalStack=0;resizeParent=1;resizeParentMax=0;resizeLast=0;collapsible=1;marginBottom=0;whiteSpace=wrap;html=1;" vertex="1" parent="1">
          <mxGeometry x="1360" y="440" width="140" height="120" as="geometry" />
        </mxCell>
        <mxCell id="WNugXiBcIQ565zmS0L84-36" value="SNS 링크보내기" style="text;strokeColor=none;fillColor=none;align=left;verticalAlign=middle;spacingLeft=4;spacingRight=4;overflow=hidden;points=[[0,0.5],[1,0.5]];portConstraint=eastwest;rotatable=0;whiteSpace=wrap;html=1;" vertex="1" parent="WNugXiBcIQ565zmS0L84-35">
          <mxGeometry y="30" width="140" height="30" as="geometry" />
        </mxCell>
        <mxCell id="WNugXiBcIQ565zmS0L84-37" value="카카오 링크보내기" style="text;strokeColor=none;fillColor=none;align=left;verticalAlign=middle;spacingLeft=4;spacingRight=4;overflow=hidden;points=[[0,0.5],[1,0.5]];portConstraint=eastwest;rotatable=0;whiteSpace=wrap;html=1;" vertex="1" parent="WNugXiBcIQ565zmS0L84-35">
          <mxGeometry y="60" width="140" height="30" as="geometry" />
        </mxCell>
        <mxCell id="WNugXiBcIQ565zmS0L84-38" value="Face에 공유하기" style="text;strokeColor=none;fillColor=none;align=left;verticalAlign=middle;spacingLeft=4;spacingRight=4;overflow=hidden;points=[[0,0.5],[1,0.5]];portConstraint=eastwest;rotatable=0;whiteSpace=wrap;html=1;" vertex="1" parent="WNugXiBcIQ565zmS0L84-35">
          <mxGeometry y="90" width="140" height="30" as="geometry" />
        </mxCell>
        <mxCell id="WNugXiBcIQ565zmS0L84-39" value="" style="shape=cylinder3;whiteSpace=wrap;html=1;boundedLbl=1;backgroundOutline=1;size=15;" vertex="1" parent="1">
          <mxGeometry x="1500" y="90" width="100" height="130" as="geometry" />
        </mxCell>
      </root>
    </mxGraphModel>
  </diagram>
</mxfile>
